<svg width="80" height="80" viewBox="0 0 80 80" fill="none" xmlns="http://www.w3.org/2000/svg">
<rect width="80" height="80" rx="12" fill="#EDF1FC"/>
<path d="M60.1562 35.8438C59.5 32.9375 58.0938 30.7812 55.1875 30.7812H51.4375V35.1875C51.4375 38.6562 48.5312 41.5625 45.1562 41.5625H35.125C32.4062 41.5625 30.1562 43.9062 30.1562 46.625V56.1875C30.1562 58.9062 32.5 60.5 35.125 61.25C38.3125 62.1875 41.4062 62.375 45.1562 61.25C47.6875 60.5938 50.125 59.0938 50.125 56.1875V52.3438H40.1875V51.125H55.1875C58.0938 51.125 59.2188 49.0625 60.1562 46.0625C61.2812 42.875 61.1875 39.875 60.1562 35.8438ZM45.8125 54.875C46.8438 54.875 47.6875 55.8125 47.6875 56.8438C47.6875 57.875 46.8438 58.7188 45.8125 58.7188C44.7812 58.7188 43.9375 57.875 43.9375 56.8438C43.9375 55.7188 44.7812 54.875 45.8125 54.875ZM34.6562 40.3438H44.6875C47.5 40.3438 49.75 38 49.75 35.1875V25.625C49.75 22.9062 47.4062 20.9375 44.6875 20.4688C41.3125 19.9062 37.6562 19.9062 34.6562 20.4688C30.4375 21.2188 29.6875 22.8125 29.6875 25.625V29.4688H39.7188V30.7812H25.9375C23.0312 30.7812 20.5 32.4688 19.6562 35.8438C18.7188 39.6875 18.7188 42.0312 19.6562 46.0625C20.4062 48.9688 22.0938 51.125 25 51.125H28.4688V46.5312C28.4688 43.25 31.2812 40.3438 34.6562 40.3438ZM34.0938 26.9375C33.0625 26.9375 32.2188 26.0938 32.2188 25.0625C32.2188 23.9375 33.0625 23.0938 34.0938 23.0938C35.125 23.0938 35.9688 23.9375 35.9688 25.0625C35.9688 26.0938 35.125 26.9375 34.0938 26.9375Z" fill="#2351DC"/>
</svg>
