<svg width="64" height="64" viewBox="0 0 64 64" fill="none" xmlns="http://www.w3.org/2000/svg">
<g clip-path="url(#clip0_9_5)">
<path d="M46.3939 56.6151H10.208C4.67445 56.6151 0 51.7847 0 46.0675C0 41.5871 2.87026 37.7054 7.07432 36.3594C7.72709 26.5609 15.7459 18.9978 25.6653 18.9978C28.9672 18.9978 32.2109 19.8729 35.0467 21.5285C35.5589 21.8275 35.7308 22.4846 35.4324 22.9961C35.1352 23.5077 34.4775 23.6815 33.9653 23.3818C31.4574 21.9178 28.5877 21.144 25.6653 21.144C16.651 21.144 9.41154 28.203 9.18371 37.2129C9.17143 37.7005 8.83184 38.1187 8.35592 38.2305C4.70086 39.0896 2.14624 42.3123 2.14624 46.0675C2.14624 50.6216 5.83877 54.4689 10.208 54.4689H46.3939C52.0963 54.4689 56.9145 49.496 56.9145 43.6087C56.9145 40.0476 55.1336 36.7554 52.1497 34.802C51.6542 34.4772 51.516 33.8115 51.8396 33.3159C52.1657 32.821 52.8289 32.6822 53.3257 33.0058C56.9163 35.3578 59.0607 39.3211 59.0607 43.6093C59.0607 50.659 53.2594 56.6151 46.3939 56.6151Z" fill="url(#paint0_linear_9_5)"/>
<path d="M14.6331 38.3706H8.19379C7.60058 38.3706 7.12097 37.891 7.12097 37.2978C7.12097 36.7046 7.60058 36.2244 8.19379 36.2244H14.6331C15.2263 36.2244 15.7066 36.7046 15.7066 37.2978C15.7066 37.891 15.2257 38.3706 14.6331 38.3706Z" fill="url(#paint1_linear_9_5)"/>
<path d="M50.1189 37.2978H47.8321C46.5879 37.2978 45.5765 36.2864 45.5765 35.0422V34.5117C44.5829 34.2366 43.6305 33.8392 42.7284 33.3265L42.3489 33.706C41.4707 34.5841 40.0387 34.5841 39.1605 33.706L37.5424 32.0879C36.663 31.2085 36.663 29.7789 37.5424 28.8995L37.9219 28.52C37.4091 27.6179 37.0118 26.6654 36.7367 25.6718H36.2061C34.962 25.6718 33.9506 24.6604 33.9506 23.4163V21.1294C33.9506 19.8853 34.962 18.8745 36.2061 18.8745H36.7367C37.0118 17.8809 37.4091 16.9278 37.9219 16.0257L37.5424 15.6462C36.663 14.7675 36.663 13.3379 37.5424 12.4579L39.1605 10.8403C40.0387 9.9622 41.4701 9.9622 42.3489 10.8403L42.7284 11.2192C43.6305 10.7071 44.5829 10.3098 45.5765 10.034V9.50347C45.5765 8.25933 46.5879 7.24854 47.8321 7.24854H50.1189C51.3631 7.24854 52.3739 8.25994 52.3739 9.50347V10.034C53.3675 10.3098 54.3205 10.7071 55.2226 11.2192L55.6022 10.8403C56.4803 9.9622 57.9117 9.9622 58.7899 10.8403L60.408 12.4579C61.2874 13.3372 61.2874 14.7668 60.408 15.6462L60.0291 16.0257C60.5413 16.9278 60.9386 17.8809 61.2143 18.8745H61.7449C62.989 18.8745 63.9998 19.8859 63.9998 21.1294V23.4163C63.9998 24.6604 62.9884 25.6718 61.7449 25.6718H61.2143C60.9386 26.6654 60.5413 27.6179 60.0291 28.52L60.408 28.8995C61.2874 29.7789 61.2874 31.2085 60.408 32.0879L58.7899 33.706C57.9117 34.5841 56.4803 34.5841 55.6022 33.706L55.2226 33.3265C54.3205 33.8392 53.3675 34.2366 52.3739 34.5117V35.0422C52.3745 36.2864 51.3631 37.2978 50.1189 37.2978ZM42.5675 30.8965C42.7732 30.8965 42.9795 30.9549 43.1601 31.0746C44.298 31.8281 45.5434 32.3458 46.8636 32.6147C47.3635 32.7167 47.7228 33.1558 47.7228 33.6661V35.0422C47.7228 35.1024 47.7725 35.1509 47.8321 35.1509H50.1189C50.1785 35.1509 50.2276 35.1018 50.2276 35.0422V33.6661C50.2276 33.1558 50.5869 32.7167 51.0867 32.6147C52.4077 32.3458 53.6524 31.8281 54.7909 31.0746C55.2134 30.7934 55.7802 30.8498 56.1419 31.2109L57.1196 32.1886C57.1613 32.2303 57.2307 32.2303 57.2725 32.1886L58.8906 30.5704C58.9324 30.5287 58.9324 30.4593 58.8906 30.4175L57.913 29.4399C57.5525 29.0788 57.4948 28.5145 57.7766 28.0889C58.5301 26.9504 59.0478 25.7056 59.3174 24.3847C59.4187 23.8848 59.8578 23.5256 60.3681 23.5256H61.7443C61.8045 23.5256 61.8536 23.4765 61.8536 23.4169V21.13C61.8536 21.0699 61.8038 21.0207 61.7443 21.0207H60.3681C59.8578 21.0207 59.4187 20.6615 59.3174 20.1616C59.0478 18.8413 58.5301 17.5959 57.7766 16.4574C57.4948 16.0325 57.5525 15.4675 57.913 15.107L58.8906 14.1288C58.9324 14.087 58.9324 14.0176 58.8906 13.9759L57.2725 12.3578C57.2307 12.316 57.1613 12.316 57.1196 12.3578L56.1419 13.336C55.7802 13.6977 55.2134 13.753 54.7909 13.4723C53.653 12.7182 52.4077 12.2006 51.0867 11.9316C50.5869 11.8296 50.2276 11.3906 50.2276 10.8803V9.50409C50.2276 9.44452 50.1785 9.39539 50.1189 9.39539H47.8321C47.7719 9.39539 47.7228 9.44452 47.7228 9.50409V10.8803C47.7228 11.3906 47.3635 11.8296 46.8636 11.9316C45.5434 12.2006 44.298 12.7188 43.1601 13.4723C42.7363 13.753 42.1702 13.6977 41.8091 13.336L40.8308 12.3578C40.7891 12.316 40.7197 12.316 40.6779 12.3578L39.0598 13.9759C39.018 14.0176 39.018 14.087 39.0598 14.1288L40.038 15.107C40.3985 15.4675 40.4562 16.0325 40.1744 16.4574C39.4203 17.5959 38.9032 18.8413 38.6336 20.1616C38.5317 20.6615 38.0926 21.0207 37.5823 21.0207H36.2061C36.1465 21.0207 36.0974 21.0705 36.0974 21.13V23.4169C36.0974 23.4765 36.1465 23.5256 36.2061 23.5256H37.5823C38.0926 23.5256 38.5317 23.8848 38.6336 24.3847C38.9032 25.7056 39.4209 26.9504 40.1744 28.0889C40.4562 28.5145 40.3985 29.0788 40.038 29.4399L39.0598 30.4175C39.018 30.4593 39.018 30.5287 39.0598 30.5704L40.6779 32.1886C40.7197 32.2303 40.7891 32.2303 40.8308 32.1886L41.8091 31.2109C42.016 31.0028 42.2905 30.8965 42.5675 30.8965ZM48.9755 27.4159C46.1396 27.4159 43.8325 25.1087 43.8325 22.2729C43.8325 19.437 46.1396 17.1299 48.9755 17.1299C51.8114 17.1299 54.1185 19.437 54.1185 22.2729C54.1185 25.1087 51.8114 27.4159 48.9755 27.4159ZM48.9755 19.2767C47.3236 19.2767 45.9794 20.621 45.9794 22.2729C45.9794 23.9248 47.3236 25.269 48.9755 25.269C50.6274 25.269 51.9717 23.9248 51.9717 22.2729C51.9717 20.621 50.6274 19.2767 48.9755 19.2767Z" fill="url(#paint2_linear_9_5)"/>
<path d="M21.8892 44.3213C21.8892 44.0723 21.8013 43.8818 21.6255 43.75C21.4497 43.6152 21.1333 43.4746 20.6763 43.3281C20.2192 43.1787 19.8574 43.0322 19.5908 42.8887C18.8643 42.4961 18.501 41.9673 18.501 41.3022C18.501 40.9565 18.5977 40.6489 18.791 40.3794C18.9873 40.1069 19.2671 39.8945 19.6304 39.7422C19.9966 39.5898 20.4067 39.5137 20.8608 39.5137C21.3179 39.5137 21.7251 39.5972 22.0825 39.7642C22.4399 39.9282 22.7168 40.1611 22.9131 40.4629C23.1123 40.7646 23.2119 41.1074 23.2119 41.4912H21.8936C21.8936 41.1982 21.8013 40.9712 21.6167 40.8101C21.4321 40.646 21.1729 40.564 20.8389 40.564C20.5166 40.564 20.2661 40.6328 20.0874 40.7705C19.9087 40.9053 19.8193 41.084 19.8193 41.3066C19.8193 41.5146 19.9233 41.689 20.1313 41.8296C20.3423 41.9702 20.6514 42.1021 21.0586 42.2251C21.8086 42.4507 22.355 42.7305 22.6978 43.0645C23.0405 43.3984 23.2119 43.8145 23.2119 44.3125C23.2119 44.8662 23.0024 45.3013 22.5835 45.6177C22.1646 45.9312 21.6006 46.0879 20.8916 46.0879C20.3994 46.0879 19.9512 45.9985 19.5469 45.8198C19.1426 45.6382 18.8335 45.3906 18.6196 45.0771C18.4087 44.7637 18.3032 44.4004 18.3032 43.9873H19.626C19.626 44.6934 20.0479 45.0464 20.8916 45.0464C21.2051 45.0464 21.4497 44.9834 21.6255 44.8574C21.8013 44.7285 21.8892 44.5498 21.8892 44.3213ZM27.7207 44.6816H25.4092L24.9697 46H23.5679L25.9497 39.6016H27.1714L29.5664 46H28.1646L27.7207 44.6816ZM25.7651 43.6138H27.3647L26.5605 41.2188L25.7651 43.6138ZM33.7764 44.6816H31.4648L31.0254 46H29.6235L32.0054 39.6016H33.2271L35.6221 46H34.2202L33.7764 44.6816ZM31.8208 43.6138H33.4204L32.6162 41.2188L31.8208 43.6138ZM39.5376 44.3213C39.5376 44.0723 39.4497 43.8818 39.2739 43.75C39.0981 43.6152 38.7817 43.4746 38.3247 43.3281C37.8677 43.1787 37.5059 43.0322 37.2393 42.8887C36.5127 42.4961 36.1494 41.9673 36.1494 41.3022C36.1494 40.9565 36.2461 40.6489 36.4395 40.3794C36.6357 40.1069 36.9155 39.8945 37.2788 39.7422C37.645 39.5898 38.0552 39.5137 38.5093 39.5137C38.9663 39.5137 39.3735 39.5972 39.731 39.7642C40.0884 39.9282 40.3652 40.1611 40.5615 40.4629C40.7607 40.7646 40.8604 41.1074 40.8604 41.4912H39.542C39.542 41.1982 39.4497 40.9712 39.2651 40.8101C39.0806 40.646 38.8213 40.564 38.4873 40.564C38.165 40.564 37.9146 40.6328 37.7358 40.7705C37.5571 40.9053 37.4678 41.084 37.4678 41.3066C37.4678 41.5146 37.5718 41.689 37.7798 41.8296C37.9907 41.9702 38.2998 42.1021 38.707 42.2251C39.457 42.4507 40.0034 42.7305 40.3462 43.0645C40.689 43.3984 40.8604 43.8145 40.8604 44.3125C40.8604 44.8662 40.6509 45.3013 40.2319 45.6177C39.813 45.9312 39.249 46.0879 38.54 46.0879C38.0479 46.0879 37.5996 45.9985 37.1953 45.8198C36.791 45.6382 36.4819 45.3906 36.2681 45.0771C36.0571 44.7637 35.9517 44.4004 35.9517 43.9873H37.2744C37.2744 44.6934 37.6963 45.0464 38.54 45.0464C38.8535 45.0464 39.0981 44.9834 39.2739 44.8574C39.4497 44.7285 39.5376 44.5498 39.5376 44.3213Z" fill="url(#paint3_linear_9_5)"/>
</g>
<defs>
<linearGradient id="paint0_linear_9_5" x1="29.5304" y1="18.9978" x2="29.5304" y2="56.6151" gradientUnits="userSpaceOnUse">
<stop offset="0.953125" stop-color="#2351DC"/>
<stop offset="1" stop-color="#2351DC" stop-opacity="0"/>
</linearGradient>
<linearGradient id="paint1_linear_9_5" x1="11.4138" y1="36.2244" x2="11.4138" y2="38.3706" gradientUnits="userSpaceOnUse">
<stop offset="0.953125" stop-color="#2351DC"/>
<stop offset="1" stop-color="#2351DC" stop-opacity="0"/>
</linearGradient>
<linearGradient id="paint2_linear_9_5" x1="48.9752" y1="7.24854" x2="48.9752" y2="37.2978" gradientUnits="userSpaceOnUse">
<stop offset="0.953125" stop-color="#2351DC"/>
<stop offset="1" stop-color="#2351DC" stop-opacity="0"/>
</linearGradient>
<linearGradient id="paint3_linear_9_5" x1="30" y1="37" x2="30" y2="48" gradientUnits="userSpaceOnUse">
<stop offset="0.953125" stop-color="#2351DC"/>
<stop offset="1" stop-color="#2351DC" stop-opacity="0"/>
</linearGradient>
<clipPath id="clip0_9_5">
<rect width="64" height="64" fill="white"/>
</clipPath>
</defs>
</svg>
